<?xml version="1.0" standalone="no"?>
<!DOCTYPE svg PUBLIC "-//W3C//DTD SVG 20010904//EN"
 "http://www.w3.org/TR/2001/REC-SVG-20010904/DTD/svg10.dtd">
<svg version="1.0" xmlns="http://www.w3.org/2000/svg"
 width="1275.000000pt" height="635.000000pt" viewBox="0 0 1275.000000 635.000000"
 preserveAspectRatio="xMidYMid meet">

<g transform="translate(0.000000,635.000000) scale(0.100000,-0.100000)"
fill="#000000" stroke="none">
<path d="M6590 6319 c-41 -10 -103 -33 -138 -49 -202 -95 -419 -320 -467 -485
-8 -27 -24 -108 -35 -180 -31 -206 -35 -214 -105 -252 -109 -59 -358 -151
-685 -254 -156 -49 -424 -179 -595 -289 -60 -39 -129 -80 -153 -91 -105 -50
-381 -76 -630 -59 -220 14 -319 30 -707 110 -697 145 -1853 363 -1993 376 -78
7 -113 2 -136 -22 -47 -47 14 -114 150 -163 120 -44 422 -134 1008 -302 269
-77 498 -146 508 -153 11 -8 30 -28 43 -46 36 -49 421 -323 564 -403 l61 -34
-78 -53 c-225 -157 -383 -291 -418 -355 l-19 -37 23 -18 c91 -75 796 -101
1332 -50 l103 10 41 -34 c141 -115 435 -258 714 -347 39 -13 72 -26 72 -29 0
-4 -25 -60 -55 -126 -30 -65 -55 -127 -55 -138 0 -28 34 -77 82 -117 24 -20
165 -117 313 -216 149 -99 277 -189 286 -199 9 -11 52 -119 97 -241 l80 -222
-34 -78 c-18 -43 -34 -95 -34 -115 0 -31 5 -40 36 -59 20 -12 62 -33 93 -45
l55 -23 103 -278 c159 -427 299 -792 370 -960 91 -215 156 -282 275 -283 51 0
144 30 178 58 21 17 20 19 -274 811 l-295 794 30 72 c29 68 30 74 16 101 -10
19 -13 45 -10 75 l5 46 -87 69 c-48 38 -96 76 -106 84 -11 9 -71 153 -144 350
-68 184 -116 326 -107 314 25 -30 42 -24 71 28 l26 46 -20 23 c-11 12 -40 35
-64 50 -24 16 -54 46 -66 68 l-23 39 62 6 c174 19 321 64 511 157 249 122 483
289 699 499 214 209 343 399 392 575 33 123 28 364 -11 520 -8 33 -47 124 -86
203 -81 161 -88 196 -65 296 28 119 84 224 152 284 70 63 125 90 264 131 57
17 106 33 108 36 9 9 -20 34 -51 44 -18 6 -88 17 -157 26 -69 9 -138 20 -155
26 -50 16 -84 60 -140 176 -88 185 -192 271 -373 308 -103 21 -259 19 -352 -6z
m373 -44 c115 -30 206 -91 259 -174 41 -66 35 -69 -28 -12 -77 70 -122 69 -72
-2 19 -27 12 -23 -42 21 -142 115 -215 116 -112 1 29 -33 39 -50 27 -45 -11 5
-65 23 -119 42 -138 47 -165 45 -108 -8 15 -14 53 -42 84 -62 86 -54 85 -60
-10 -52 -92 7 -149 -3 -229 -41 -56 -26 -183 -136 -172 -147 4 -4 64 21 135
56 123 59 133 62 204 62 51 1 84 -4 104 -15 28 -15 31 -15 64 7 40 28 93 44
142 44 49 0 148 -50 193 -97 l38 -40 -31 -27 c-17 -14 -35 -26 -40 -26 -28 0
-138 43 -152 60 -10 11 -27 20 -38 20 -29 0 -110 -21 -111 -29 0 -3 -2 -32 -4
-64 -8 -114 -68 -177 -168 -177 -57 0 -95 18 -131 61 -15 17 -28 30 -30 28 -1
-2 -17 -44 -35 -94 -43 -117 -75 -171 -111 -190 -66 -34 -56 -75 40 -178 35
-38 60 -73 57 -81 -7 -17 -52 -26 -131 -26 -34 0 -76 -4 -95 -10 -29 -8 -44
-4 -125 35 -111 54 -174 77 -181 66 -8 -13 20 -40 130 -128 129 -104 135 -111
206 -237 l59 -107 0 -118 c0 -211 -49 -340 -175 -460 -170 -161 -337 -224
-930 -351 -132 -28 -340 -74 -463 -101 -368 -81 -531 -103 -887 -115 -380 -12
-865 34 -865 84 0 14 136 50 235 61 50 6 248 22 442 36 601 43 886 91 1063
181 85 43 92 55 20 34 -321 -96 -771 -144 -1148 -121 -368 22 -451 49 -331
109 70 35 167 50 384 61 110 5 254 19 320 31 335 58 743 197 848 289 20 18 37
37 37 41 0 4 -38 -7 -85 -25 -267 -105 -722 -201 -1006 -212 -150 -6 -199 -1
-199 19 0 24 101 108 220 182 186 117 311 198 307 202 -11 11 -293 -124 -452
-216 l-90 -52 -505 127 c-278 70 -516 135 -530 145 -14 9 -225 75 -470 145
-943 270 -1140 334 -1184 383 -18 21 -18 21 7 33 31 14 82 7 467 -62 519 -93
976 -183 1810 -354 277 -57 389 -69 655 -69 343 -1 458 22 605 120 232 155
453 260 765 361 438 143 612 219 648 281 12 20 31 100 48 205 34 201 45 234
110 331 102 153 314 314 469 356 118 32 281 34 393 5z m554 -570 c2 -6 -38
-31 -88 -55 -107 -53 -126 -70 -79 -70 l32 0 -25 -29 c-54 -65 -117 -255 -117
-353 0 -51 7 -72 60 -174 l59 -115 -33 -14 c-54 -23 -166 -37 -236 -30 -155
16 -324 107 -360 195 -10 25 -9 34 8 62 12 18 32 44 46 57 33 31 33 60 1 107
-30 45 -31 56 -4 110 26 54 78 101 165 149 38 21 89 53 114 70 105 74 133 85
217 86 43 1 105 5 138 9 74 9 97 8 102 -5z m-789 -877 c18 -18 15 -51 -14
-173 -33 -139 -46 -168 -116 -279 -34 -52 -58 -101 -58 -116 0 -41 30 -62 81
-58 42 3 44 4 53 43 11 54 36 113 53 127 19 16 58 92 86 172 28 76 62 135 116
199 l41 49 12 -27 c9 -19 9 -39 1 -77 -8 -39 -7 -71 4 -132 8 -45 12 -97 10
-117 -7 -54 -54 -153 -109 -227 -42 -57 -48 -71 -48 -115 0 -86 54 -115 109
-59 22 21 31 44 40 97 20 119 22 125 64 173 22 26 49 66 59 90 24 54 48 163
48 223 0 51 23 90 68 113 l27 14 0 -212 c-1 -230 -3 -243 -65 -352 -38 -66
-51 -150 -25 -160 26 -11 82 21 109 63 38 57 54 136 61 295 6 139 8 145 43
216 20 39 39 72 43 72 3 0 9 -30 12 -67 32 -333 -75 -560 -416 -889 -308 -298
-711 -536 -1018 -603 -129 -27 -348 -44 -484 -36 l-110 7 -110 -127 -109 -127
-98 4 c-53 2 -100 6 -103 9 -3 3 24 70 60 149 36 79 62 147 58 150 -5 4 -51
21 -104 38 -240 76 -529 209 -651 300 l-63 46 45 7 c222 35 328 55 447 84 76
18 278 63 448 100 380 81 574 128 685 167 282 100 470 262 530 457 24 77 44
249 35 302 -6 35 -4 39 23 53 17 9 40 29 52 45 26 37 71 70 119 87 45 16 45
16 59 2z m-3139 -588 c0 -3 -28 -23 -62 -44 -34 -22 -96 -61 -138 -88 l-77
-49 -63 32 c-85 42 -516 340 -533 368 -3 4 192 -42 434 -103 242 -61 440 -113
439 -116z m2187 -1225 c13 -8 27 -27 30 -40 3 -14 19 -32 35 -41 16 -8 44 -28
64 -45 34 -30 34 -31 19 -61 l-16 -31 -42 45 c-82 89 -178 128 -313 128 -83 0
-99 -10 -149 -90 -20 -33 -39 -60 -41 -60 -3 0 -18 8 -34 17 -45 27 -38 48 50
150 l44 51 164 -4 c129 -2 170 -6 189 -19z m-82 -111 l90 -40 91 -244 c144
-388 155 -421 143 -414 -7 4 -53 40 -103 78 -49 39 -138 102 -197 139 -121 77
-97 38 -203 334 -69 193 -68 198 30 191 42 -3 87 -16 149 -44z m-204 -203 c28
-79 50 -145 47 -147 -5 -5 -254 194 -286 229 l-23 26 26 28 c14 15 26 23 26
16 0 -6 18 -22 40 -34 25 -14 40 -30 40 -42 0 -18 2 -18 18 4 10 13 24 39 32
57 16 42 15 44 80 -137z m-240 55 c124 -114 348 -284 514 -388 41 -26 137 -98
213 -159 76 -62 177 -143 226 -181 71 -57 87 -75 87 -97 0 -15 -5 -32 -11 -38
-8 -8 -5 -19 11 -41 20 -27 21 -31 6 -63 -29 -66 -30 -66 -83 -22 -153 126
-177 130 -273 37 -84 -80 -97 -108 -82 -172 6 -26 8 -49 6 -52 -3 -2 -30 8
-60 24 -40 21 -54 34 -54 50 1 41 58 167 119 260 80 123 84 146 40 193 -74 78
-308 254 -570 429 -151 101 -297 207 -324 234 l-50 51 115 -7 115 -7 55 -51z
m578 -606 c50 -44 92 -85 92 -91 0 -24 -85 -168 -93 -158 -2 2 -30 76 -62 164
-32 88 -60 166 -63 174 -9 23 26 -1 126 -89z m303 -381 c38 -23 74 -49 78 -58
7 -12 363 -967 572 -1533 l28 -78 -37 -19 c-125 -64 -225 -24 -297 119 -59
117 -189 454 -562 1458 l-16 43 34 36 c41 43 87 73 112 73 10 0 50 -19 88 -41z"/>
<path d="M6710 5843 c-36 -13 -50 -36 -50 -82 0 -83 59 -151 131 -151 54 0
109 70 109 140 0 42 -15 67 -50 85 -28 15 -109 19 -140 8z m65 -73 c0 -20 -6
-26 -28 -28 -18 -2 -29 2 -33 12 -11 28 4 48 33 44 22 -2 28 -8 28 -28z"/>
<path d="M7443 2280 c-117 -38 -209 -148 -248 -297 -21 -77 -21 -249 0 -327
51 -194 182 -305 365 -314 228 -10 382 128 421 379 37 240 -58 468 -229 547
-79 36 -218 41 -309 12z m225 -184 c76 -40 113 -114 120 -241 8 -159 -32 -264
-118 -307 -48 -25 -131 -23 -181 2 -82 42 -128 168 -115 317 9 116 54 199 121
229 40 18 139 18 173 0z"/>
<path d="M8635 2286 c-64 -20 -98 -42 -142 -89 -114 -124 -81 -322 68 -398 22
-11 93 -34 157 -51 127 -33 186 -58 196 -83 14 -38 6 -82 -20 -106 -24 -22
-33 -24 -127 -24 -110 0 -160 16 -217 71 l-26 24 -66 -58 c-37 -31 -67 -60
-67 -63 -2 -18 91 -95 143 -120 83 -39 156 -52 261 -46 150 8 238 53 289 147
58 106 44 249 -32 325 -51 51 -95 71 -230 107 -144 37 -189 59 -198 95 -30
117 199 137 316 27 l26 -24 68 69 68 68 -44 37 c-52 45 -95 68 -167 90 -65 19
-199 20 -256 2z"/>
<path d="M11770 2289 c0 -6 61 -110 136 -230 l136 -219 -146 -236 c-80 -129
-146 -237 -146 -239 0 -3 49 -5 110 -5 l110 0 26 42 c15 23 57 94 94 159 l67
118 28 -52 c16 -29 57 -100 92 -159 l64 -108 109 0 c61 0 110 3 110 6 0 4 -65
112 -145 240 l-146 234 141 225 c77 124 140 228 140 230 0 3 -49 5 -110 5
l-110 0 -27 -42 c-14 -24 -53 -91 -86 -151 l-60 -107 -70 122 c-110 194 -90
178 -213 178 -70 0 -104 -4 -104 -11z"/>
<path d="M4439 2276 c-63 -17 -133 -60 -165 -101 -77 -101 -71 -251 13 -337
44 -45 98 -69 234 -103 165 -42 218 -83 193 -151 -17 -50 -55 -68 -147 -68
-73 -1 -90 3 -148 31 -36 18 -74 41 -83 52 -18 20 -19 19 -82 -37 -35 -31 -64
-62 -64 -68 0 -17 82 -90 127 -112 110 -57 274 -69 399 -31 88 27 162 97 184
174 21 73 17 165 -10 219 -40 83 -104 122 -273 166 -141 37 -186 57 -193 86
-18 71 25 108 124 108 72 -1 134 -25 183 -70 l26 -25 69 65 69 64 -30 32 c-92
98 -281 145 -426 106z"/>
<path d="M8092 1823 l3 -468 93 -3 92 -3 0 471 0 470 -95 0 -95 0 2 -467z"/>
<path d="M9250 1820 l0 -470 335 0 335 0 0 95 0 95 -240 0 -240 0 0 110 0 110
135 0 136 0 -3 93 -3 92 -132 3 -133 3 0 74 0 75 230 0 230 0 0 95 0 95 -325
0 -325 0 0 -470z"/>
<path d="M10356 2282 c-5 -9 -356 -923 -356 -929 0 -2 46 -2 101 -1 l102 3 35
103 36 102 171 0 170 0 36 -103 36 -102 101 -3 c59 -2 102 1 102 7 0 5 -78
215 -174 468 l-175 458 -90 3 c-49 1 -92 -1 -95 -6z m145 -404 l48 -138 -104
0 -104 0 52 151 c28 83 53 145 56 137 2 -7 25 -75 52 -150z"/>
<path d="M10910 2001 c0 -299 4 -349 40 -443 64 -173 269 -260 468 -199 126
38 214 144 242 291 6 29 10 185 10 346 l0 294 -94 0 -95 0 -3 -307 c-3 -299
-4 -309 -26 -355 -33 -68 -72 -92 -152 -96 -55 -3 -70 0 -100 20 -46 31 -76
78 -89 139 -6 29 -11 166 -11 324 l0 275 -95 0 -95 0 0 -289z"/>
<path d="M1255 2268 c-3 -7 -4 -218 -3 -468 l3 -455 265 0 265 0 67 33 c110
54 158 134 158 266 0 75 -29 138 -80 175 l-37 27 33 39 c77 88 72 227 -11 311
-71 70 -103 77 -397 82 -209 3 -259 1 -263 -10z m489 -179 c31 -15 50 -59 41
-98 -12 -54 -33 -61 -197 -61 l-148 0 0 85 0 85 140 0 c82 0 149 -5 164 -11z
m16 -347 c65 -32 78 -131 25 -185 -33 -32 -61 -37 -216 -37 l-129 0 0 120 0
120 143 0 c115 0 149 -3 177 -18z"/>
<path d="M2140 1810 l0 -470 95 0 95 0 0 470 0 470 -95 0 -95 0 0 -470z"/>
<path d="M2500 1810 l0 -470 95 0 95 0 0 170 0 170 90 0 90 0 85 -170 85 -170
105 0 c64 0 105 4 105 10 0 6 -38 87 -85 180 -47 93 -85 172 -85 175 0 3 6 5
13 5 6 0 33 16 58 35 70 51 104 126 104 230 -1 164 -86 264 -250 294 -32 6
-159 11 -282 11 l-223 0 0 -470z m505 268 c33 -15 55 -56 55 -103 0 -47 -22
-88 -55 -103 -16 -8 -80 -12 -170 -12 l-145 0 0 115 0 115 145 0 c90 0 154 -4
170 -12z"/>
<path d="M3380 1810 l0 -472 198 4 c170 4 205 8 256 27 88 31 137 64 194 126
155 169 145 517 -19 672 -88 82 -172 104 -426 110 l-203 5 0 -472z m430 256
c49 -25 78 -54 103 -101 19 -34 22 -56 22 -150 0 -127 -15 -168 -85 -227 -51
-45 -98 -58 -199 -58 l-81 0 0 281 0 281 103 -4 c73 -3 112 -9 137 -22z"/>
<path d="M354 1139 c-80 -13 -141 -44 -203 -104 -97 -92 -141 -210 -141 -375
0 -217 82 -370 240 -444 58 -28 75 -31 160 -31 111 0 176 19 243 70 38 29 107
116 107 134 0 4 -26 22 -57 40 -32 19 -67 41 -79 48 -19 12 -23 10 -47 -26
-36 -55 -102 -85 -172 -79 -79 7 -125 41 -167 125 -31 63 -33 74 -33 168 1 82
5 109 23 150 43 95 104 138 192 138 64 0 106 -19 144 -64 l27 -32 84 38 c47
21 85 43 85 49 -1 21 -70 106 -112 136 -70 51 -196 76 -294 59z"/>
<path d="M7786 1140 c-112 -19 -217 -95 -279 -201 -84 -143 -87 -383 -7 -546
125 -254 496 -288 661 -59 16 21 29 45 29 51 0 7 -35 33 -77 58 l-76 45 -29
-39 c-98 -136 -302 -87 -353 85 -20 66 -19 201 1 264 19 59 63 116 107 139 20
10 56 17 93 17 68 0 101 -15 145 -67 l26 -30 74 33 c41 19 79 38 86 43 32 23
-94 153 -180 185 -64 24 -156 33 -221 22z"/>
<path d="M1140 1126 c0 -2 -79 -209 -175 -460 -96 -252 -175 -462 -175 -467 0
-14 186 -11 197 4 6 6 22 48 37 92 14 44 30 86 34 93 7 9 49 12 176 10 l168
-3 37 -100 36 -100 104 -3 c81 -2 102 0 99 10 -3 7 -83 219 -178 471 l-173
457 -94 0 c-51 0 -93 -2 -93 -4z m143 -394 c26 -75 47 -140 47 -144 0 -5 -45
-8 -101 -8 -77 0 -100 3 -97 13 10 41 94 277 98 277 3 0 26 -62 53 -138z"/>
<path d="M1792 663 l3 -468 93 -3 92 -3 0 302 0 302 181 -269 c252 -374 215
-334 310 -334 l79 0 0 470 0 470 -96 0 -97 0 5 -290 c2 -159 3 -290 3 -290 -1
0 -89 131 -195 290 l-193 290 -94 0 -93 0 2 -467z"/>
<path d="M2847 667 c-97 -254 -177 -466 -177 -470 0 -4 45 -7 99 -7 l99 0 37
105 38 105 171 -2 171 -3 35 -100 35 -100 104 -3 c95 -3 103 -1 99 15 -4 13
-297 786 -343 906 -6 14 -21 17 -99 17 l-91 0 -178 -463z m363 -74 c0 -10 -27
-13 -101 -13 -77 0 -100 3 -97 13 3 6 26 74 53 151 l49 139 47 -139 c27 -77
48 -145 49 -151z"/>
<path d="M3662 663 l3 -468 180 1 c253 2 334 25 443 128 101 95 138 205 130
382 -10 209 -93 334 -260 394 -56 21 -86 24 -281 28 l-217 4 2 -469z m410 266
c50 -13 107 -64 129 -114 25 -56 33 -149 20 -220 -16 -84 -54 -141 -119 -178
-46 -26 -67 -31 -148 -35 l-94 -5 0 288 0 288 87 -7 c48 -3 105 -11 125 -17z"/>
<path d="M4752 1078 c-11 -29 -90 -236 -176 -460 -86 -224 -156 -412 -156
-418 0 -7 34 -10 98 -8 l97 3 32 85 c17 47 34 93 36 103 5 16 20 17 178 15
l172 -3 27 -81 c45 -132 35 -124 151 -124 77 0 100 3 97 12 -3 7 -83 219 -178
471 l-174 457 -92 0 -93 0 -19 -52z m161 -346 c26 -76 47 -141 47 -145 0 -4
-45 -7 -100 -7 -55 0 -100 3 -100 7 0 14 95 283 100 283 3 0 26 -62 53 -138z"/>
<path d="M8401 673 c-96 -252 -176 -464 -179 -471 -3 -10 18 -12 98 -10 l103
3 35 102 35 103 171 0 171 0 36 -103 36 -102 103 -3 c102 -3 102 -3 96 20 -3
13 -82 223 -175 468 l-169 445 -93 3 -94 2 -174 -457z m266 -91 c-55 -1 -101
-1 -103 0 -1 2 20 70 48 152 l51 148 52 -148 52 -149 -100 -3z"/>
<path d="M9230 660 l0 -471 93 3 92 3 -1 298 c-1 164 0 296 2 294 2 -2 93
-136 203 -298 l198 -294 84 0 84 0 3 468 2 467 -95 0 -95 0 0 -292 0 -293
-195 293 -195 292 -90 0 -90 0 0 -470z"/>
<path d="M10457 1123 c-7 -12 -347 -901 -350 -916 -1 -9 24 -12 97 -12 l99 0
36 102 36 103 172 0 171 0 18 -53 c9 -28 25 -76 36 -104 l19 -53 100 0 c73 0
99 3 99 13 0 6 -78 217 -173 467 l-173 455 -91 3 c-50 1 -94 -1 -96 -5z m137
-379 c24 -71 48 -137 51 -146 7 -16 -2 -18 -98 -18 l-106 0 52 149 c29 82 53
148 54 147 2 -1 23 -60 47 -132z"/>
<path d="M11100 659 l0 -472 188 6 c198 6 251 16 346 64 158 80 245 274 218
486 -15 117 -44 187 -104 253 -99 108 -188 134 -460 134 l-188 0 0 -471z m437
255 c85 -41 123 -116 123 -244 0 -188 -86 -278 -276 -288 l-94 -5 0 288 0 288
98 -7 c74 -5 109 -12 149 -32z"/>
<path d="M12031 673 c-96 -252 -177 -464 -179 -470 -3 -10 20 -13 96 -13 l100
0 30 82 c16 46 33 93 36 106 7 22 10 22 179 22 l172 0 35 -103 35 -102 103 -3
c56 -1 102 1 102 6 0 5 -78 216 -174 468 l-175 459 -93 3 -93 2 -174 -457z
m359 -80 c0 -10 -27 -13 -101 -13 -77 0 -100 3 -96 13 2 6 26 74 52 150 l48
139 49 -139 c26 -76 48 -144 48 -150z"/>
</g>
</svg>
