<?xml version="1.0" standalone="no"?>
<!DOCTYPE svg PUBLIC "-//W3C//DTD SVG 20010904//EN"
 "http://www.w3.org/TR/2001/REC-SVG-20010904/DTD/svg10.dtd">
<svg version="1.0" xmlns="http://www.w3.org/2000/svg"
 width="1193.000000pt" height="667.000000pt" viewBox="0 0 1193.000000 667.000000"
 preserveAspectRatio="xMidYMid meet">

<g transform="translate(0.000000,667.000000) scale(0.100000,-0.100000)"
fill="#000000" stroke="none">
<path d="M5883 6628 c-5 -24 -151 -751 -324 -1615 -172 -865 -317 -1573 -320
-1573 -3 0 -138 405 -299 900 l-295 900 -444 -2 -444 -3 -529 -2605 c-290
-1433 -528 -2608 -528 -2612 0 -5 206 -8 459 -8 435 0 459 1 463 18 3 10 162
777 354 1705 192 928 351 1687 354 1687 4 0 317 -1148 512 -1878 l9 -32 441 2
441 3 518 2555 c285 1405 521 2565 524 2578 l5 22 -444 0 -444 0 -9 -42z"/>
<path d="M11535 5314 c-439 -32 -809 -132 -1154 -310 -454 -235 -789 -574
-1007 -1017 -118 -241 -199 -501 -240 -772 -25 -164 -25 -452 0 -590 104 -579
512 -986 1159 -1155 205 -54 299 -65 564 -65 183 0 245 3 255 13 11 10 250
1091 243 1100 -1 1 -33 -4 -71 -12 -211 -44 -492 -47 -652 -7 -251 63 -418
226 -467 456 -19 92 -19 258 1 376 90 538 474 929 994 1014 121 19 338 19 459
0 52 -9 95 -14 96 -13 1 2 48 212 104 468 56 256 104 472 107 481 3 12 -4 18
-28 22 -44 8 -300 16 -363 11z"/>
<path d="M622 5203 c-6 -27 -146 -687 -313 -1468 -329 -1547 -323 -1511 -285
-1654 69 -259 287 -455 636 -572 201 -67 323 -83 625 -84 278 0 375 10 576 61
488 122 858 407 993 765 18 47 646 2958 646 2994 0 3 -212 4 -472 3 l-471 -3
-283 -1330 c-228 -1073 -287 -1340 -310 -1383 -71 -138 -255 -222 -488 -222
-294 0 -475 89 -476 233 0 27 463 2238 560 2670 l8 37 -468 0 -468 0 -10 -47z"/>
<path d="M6750 5237 c0 -1 -171 -836 -380 -1856 -209 -1020 -380 -1858 -380
-1863 0 -5 387 -7 908 -5 808 3 915 5 977 20 271 65 514 199 704 387 229 227
366 500 412 821 6 46 11 165 12 264 0 422 -98 646 -379 861 -41 31 -74 59 -74
61 0 3 31 38 68 78 80 86 134 183 163 292 29 107 31 355 5 458 -61 237 -225
416 -432 470 -50 13 -170 15 -831 15 -425 0 -773 -1 -773 -3z m1091 -630 c67
-35 102 -93 107 -173 11 -172 -97 -347 -247 -399 -49 -16 -281 -22 -281 -6 0
4 27 140 60 300 33 161 60 294 60 296 0 3 58 5 128 5 116 0 133 -2 173 -23z
m-26 -1262 c125 -33 205 -98 247 -204 20 -49 23 -73 22 -191 0 -119 -4 -145
-28 -217 -66 -201 -232 -358 -415 -393 -30 -5 -168 -10 -307 -10 -235 0 -254
1 -254 18 0 9 46 241 102 515 l102 497 236 0 c180 0 250 -4 295 -15z"/>
</g>
</svg>
