<svg id="svg" version="1.1" xmlns="http://www.w3.org/2000/svg" xmlns:xlink="http://www.w3.org/1999/xlink" width="400" height="400" viewBox="0, 0, 400,400"><g id="svgg"><path id="path0" d="M277.000 127.813 C 241.330 132.939,218.948 161.144,219.081 200.800 C 219.219 241.767,239.615 267.448,275.800 272.213 C 283.583 273.238,302.580 272.778,308.200 271.428 C 308.640 271.322,310.800 270.852,313.000 270.383 C 319.619 268.973,326.800 266.731,326.800 266.075 C 326.800 265.729,324.056 248.918,323.622 246.600 C 323.415 245.500,323.126 243.790,322.978 242.800 C 322.594 240.227,322.255 239.934,320.506 240.665 C 314.270 243.271,301.290 245.577,292.800 245.589 C 264.942 245.627,251.815 231.015,251.844 200.000 C 251.862 180.331,256.994 168.155,268.525 160.419 C 278.890 153.465,299.461 152.882,315.117 159.099 C 318.317 160.370,317.726 161.396,320.821 149.200 C 321.463 146.670,322.366 143.250,322.828 141.600 C 323.289 139.950,323.902 137.640,324.189 136.467 L 324.711 134.333 322.933 133.571 C 311.103 128.500,290.336 125.897,277.000 127.813 M75.600 130.687 C 75.600 130.735,76.814 132.535,78.297 134.687 C 80.947 138.532,84.173 143.230,85.515 145.200 C 85.890 145.750,88.190 149.080,90.625 152.600 C 93.061 156.120,96.648 161.340,98.596 164.200 C 100.545 167.060,102.705 170.210,103.397 171.200 C 105.868 174.733,111.910 183.473,114.874 187.800 C 116.531 190.220,118.672 193.332,119.631 194.716 C 120.894 196.539,121.268 197.385,120.988 197.784 C 120.774 198.087,118.186 201.545,115.234 205.467 C 105.408 218.530,102.873 222.131,92.333 238.000 C 82.801 252.352,73.600 267.657,73.600 269.162 C 73.600 269.835,105.358 269.774,105.916 269.100 C 106.144 268.825,106.998 267.340,107.814 265.800 C 112.069 257.772,120.686 243.367,126.118 235.200 C 130.164 229.118,137.272 219.151,138.638 217.643 C 139.039 217.201,142.704 222.036,149.675 232.200 C 154.191 238.786,166.627 259.135,170.575 266.400 L 172.205 269.400 188.802 269.505 C 197.931 269.562,205.638 269.518,205.929 269.406 C 206.550 269.168,203.275 262.924,197.325 253.000 C 191.435 243.175,172.603 216.223,160.462 200.241 C 158.828 198.090,157.619 196.128,157.737 195.819 C 157.854 195.514,159.460 193.135,161.305 190.532 C 163.150 187.930,167.257 182.057,170.430 177.482 C 173.604 172.907,177.010 168.010,178.000 166.600 C 178.990 165.191,181.870 161.052,184.400 157.404 C 186.930 153.755,190.597 148.482,192.549 145.685 C 194.500 142.888,197.619 138.393,199.478 135.696 L 202.860 130.791 186.155 130.896 L 169.450 131.000 161.704 143.000 C 157.444 149.600,152.023 157.970,149.659 161.600 C 147.295 165.230,144.289 169.862,142.980 171.894 C 141.671 173.926,140.380 175.591,140.112 175.594 C 139.844 175.597,137.324 172.073,134.512 167.763 C 131.700 163.453,127.503 157.018,125.185 153.463 C 122.866 149.908,120.436 146.154,119.785 145.120 C 119.133 144.087,116.800 140.449,114.600 137.038 L 110.600 130.834 93.100 130.717 C 83.475 130.653,75.600 130.639,75.600 130.687 " stroke="none" fill="#fbf9f9" fill-rule="evenodd"></path><path id="path1" d="M0.000 200.000 L 0.000 400.000 200.000 400.000 L 400.000 400.000 400.000 200.000 L 400.000 0.000 200.000 0.000 L 0.000 0.000 0.000 200.000 M304.600 127.844 C 307.680 128.408,310.876 128.963,311.703 129.077 C 312.529 129.191,313.305 129.445,313.426 129.642 C 313.548 129.839,314.166 130.000,314.800 130.000 C 315.434 130.000,316.064 130.180,316.200 130.400 C 316.336 130.620,316.876 130.800,317.400 130.800 C 317.924 130.800,318.464 130.980,318.600 131.200 C 318.736 131.420,319.257 131.600,319.757 131.600 C 320.257 131.600,320.789 131.722,320.938 131.871 C 321.087 132.021,322.062 132.439,323.105 132.801 C 325.226 133.537,325.536 134.901,324.427 138.600 C 324.163 139.480,323.779 140.875,323.573 141.700 C 323.368 142.525,323.007 143.965,322.771 144.900 C 322.535 145.835,322.245 147.187,322.127 147.904 C 322.008 148.621,321.751 149.306,321.556 149.427 C 321.360 149.548,321.200 150.078,321.200 150.605 C 321.200 151.131,321.039 151.976,320.842 152.481 C 320.645 152.987,320.285 154.165,320.042 155.100 C 318.398 161.428,318.712 161.120,315.130 159.903 C 313.519 159.356,311.390 158.682,310.400 158.407 C 309.410 158.132,308.150 157.767,307.600 157.596 C 307.050 157.425,305.610 157.098,304.400 156.869 C 303.190 156.640,301.241 156.260,300.069 156.026 C 297.297 155.472,285.074 155.476,282.331 156.032 C 279.213 156.664,277.093 157.229,276.305 157.639 C 275.923 157.838,275.434 158.000,275.217 158.000 C 269.288 158.000,257.887 170.317,255.224 179.600 C 254.940 180.590,254.567 181.850,254.396 182.400 C 254.039 183.551,253.435 186.639,252.825 190.446 C 252.278 193.852,252.275 206.520,252.820 209.954 C 254.069 217.829,255.010 221.084,257.634 226.600 C 261.864 235.496,268.071 240.483,278.200 243.125 C 286.046 245.171,299.737 245.045,310.000 242.832 C 314.018 241.966,317.214 241.107,319.600 240.255 C 323.080 239.011,323.227 239.114,323.805 243.200 C 323.945 244.190,324.225 245.900,324.426 247.000 C 324.628 248.100,324.988 250.170,325.228 251.600 C 325.468 253.030,325.815 255.100,326.000 256.200 C 326.185 257.300,326.531 259.370,326.770 260.800 C 327.008 262.230,327.314 263.992,327.449 264.716 C 327.727 266.199,326.951 267.379,325.476 267.717 C 324.994 267.827,323.520 268.321,322.200 268.815 C 319.489 269.828,318.589 270.051,310.800 271.637 C 301.551 273.520,289.869 274.330,281.807 273.647 C 276.454 273.194,275.317 273.037,269.800 271.994 C 266.343 271.340,261.868 270.138,260.705 269.551 C 260.323 269.358,259.826 269.200,259.601 269.200 C 259.240 269.200,257.783 268.602,254.400 267.066 C 244.775 262.695,233.930 253.001,229.129 244.478 C 226.825 240.387,225.217 237.078,224.039 234.000 C 223.324 232.130,222.572 230.287,222.369 229.905 C 222.166 229.523,222.000 228.846,222.000 228.400 C 222.000 227.954,221.836 227.277,221.635 226.895 C 221.435 226.513,221.054 225.120,220.789 223.800 C 220.525 222.480,220.168 220.860,219.997 220.200 C 219.692 219.025,219.207 215.573,218.402 208.836 C 217.883 204.490,217.887 196.327,218.411 192.000 C 219.648 181.781,221.059 175.889,224.037 168.500 C 224.237 168.005,224.556 167.195,224.747 166.700 C 230.589 151.564,243.428 138.732,260.000 131.468 C 271.084 126.609,289.629 125.102,304.600 127.844 M113.190 133.585 C 114.515 135.556,115.600 137.328,115.600 137.523 C 115.600 137.717,115.960 138.202,116.400 138.600 C 116.840 138.998,117.200 139.477,117.200 139.664 C 117.200 139.851,119.241 143.108,121.736 146.902 C 124.230 150.696,128.252 156.860,130.672 160.600 C 133.093 164.340,135.596 168.194,136.236 169.164 C 137.250 170.700,137.909 171.735,139.568 174.397 C 139.773 174.725,140.018 174.905,140.113 174.797 C 140.597 174.249,148.400 162.388,148.400 162.202 C 148.400 162.082,150.560 158.751,153.200 154.800 C 155.840 150.849,158.000 147.530,158.000 147.424 C 158.000 147.319,159.765 144.570,161.923 141.316 C 164.080 138.062,166.638 134.185,167.608 132.700 L 169.370 130.000 186.485 130.000 C 203.333 130.000,203.600 130.012,203.600 130.800 C 203.600 131.240,203.420 131.600,203.200 131.600 C 202.980 131.600,202.800 131.855,202.800 132.167 C 202.800 132.478,202.655 132.793,202.477 132.867 C 202.299 132.940,200.814 134.949,199.177 137.330 C 194.879 143.582,189.546 151.279,186.795 155.200 C 185.483 157.070,182.782 160.940,180.792 163.800 C 178.803 166.660,176.105 170.530,174.797 172.400 C 170.695 178.266,165.344 186.006,161.764 191.254 L 158.316 196.308 163.087 202.654 C 173.341 216.294,175.187 218.843,180.866 227.200 C 182.884 230.170,184.657 232.690,184.806 232.800 C 185.184 233.080,195.600 248.732,195.600 249.020 C 195.600 249.150,196.121 250.013,196.757 250.938 C 198.621 253.647,201.870 259.215,205.491 265.907 C 208.140 270.804,209.580 270.400,189.475 270.400 C 169.892 270.400,171.799 270.733,169.987 267.000 C 168.942 264.846,165.221 258.401,161.674 252.600 C 156.900 244.792,156.245 243.742,155.142 242.128 C 154.514 241.208,154.000 240.349,154.000 240.218 C 154.000 239.322,139.329 218.497,138.859 218.726 C 138.716 218.795,137.578 220.235,136.328 221.926 C 135.079 223.617,133.708 225.450,133.281 226.000 C 132.031 227.611,121.200 243.934,121.200 244.207 C 121.200 244.344,120.660 245.241,120.000 246.200 C 119.340 247.159,118.800 248.137,118.800 248.372 C 118.800 248.607,118.620 248.800,118.400 248.800 C 118.180 248.800,118.000 248.997,118.000 249.238 C 118.000 249.479,117.661 250.154,117.247 250.738 C 116.544 251.729,116.167 252.367,113.957 256.300 C 113.494 257.125,112.976 257.980,112.806 258.200 C 112.637 258.420,111.781 259.950,110.905 261.600 C 108.310 266.488,106.710 269.368,106.293 269.900 C 105.992 270.286,102.123 270.400,89.384 270.400 C 70.272 270.400,71.721 270.861,74.477 265.659 C 77.104 260.702,77.411 260.164,80.668 254.800 C 85.918 246.155,90.402 239.325,99.310 226.400 C 107.445 214.598,110.954 209.753,117.220 201.674 C 118.639 199.845,119.962 198.117,120.161 197.834 C 120.410 197.478,119.553 195.909,117.389 192.759 C 109.676 181.529,101.545 169.718,95.055 160.315 C 78.000 135.607,74.800 130.883,74.800 130.419 C 74.800 130.133,80.515 130.000,92.790 130.000 L 110.779 130.000 113.190 133.585 " stroke="none" fill="#832404" fill-rule="evenodd"></path><path id="path2" d="M280.900 127.076 C 281.285 127.176,281.915 127.176,282.300 127.076 C 282.685 126.975,282.370 126.893,281.600 126.893 C 280.830 126.893,280.515 126.975,280.900 127.076 M293.700 127.076 C 294.085 127.176,294.715 127.176,295.100 127.076 C 295.485 126.975,295.170 126.893,294.400 126.893 C 293.630 126.893,293.315 126.975,293.700 127.076 M84.327 130.300 C 89.237 130.363,97.157 130.363,101.927 130.300 C 106.697 130.236,102.680 130.184,93.000 130.184 C 83.320 130.184,79.417 130.236,84.327 130.300 M169.149 130.700 C 168.663 131.319,168.674 131.343,169.236 130.904 C 169.713 130.532,174.053 130.382,186.636 130.300 L 203.400 130.191 186.549 130.095 C 170.909 130.007,169.658 130.050,169.149 130.700 M238.788 145.900 L 236.200 148.600 238.900 146.012 C 240.385 144.588,241.600 143.373,241.600 143.312 C 241.600 143.017,241.193 143.392,238.788 145.900 M218.514 195.000 C 218.517 196.100,218.595 196.503,218.687 195.895 C 218.779 195.286,218.777 194.386,218.682 193.895 C 218.587 193.403,218.511 193.900,218.514 195.000 M218.514 205.800 C 218.517 206.900,218.595 207.303,218.687 206.695 C 218.779 206.086,218.777 205.186,218.682 204.695 C 218.587 204.203,218.511 204.700,218.514 205.800 M290.915 245.096 C 292.188 245.176,294.168 245.175,295.315 245.094 C 296.462 245.014,295.420 244.949,293.000 244.950 C 290.580 244.951,289.642 245.016,290.915 245.096 M237.800 255.200 C 239.328 256.740,240.669 258.000,240.779 258.000 C 240.889 258.000,239.728 256.740,238.200 255.200 C 236.672 253.660,235.331 252.400,235.221 252.400 C 235.111 252.400,236.272 253.660,237.800 255.200 M279.300 273.076 C 279.685 273.176,280.315 273.176,280.700 273.076 C 281.085 272.975,280.770 272.893,280.000 272.893 C 279.230 272.893,278.915 272.975,279.300 273.076 M296.900 273.076 C 297.285 273.176,297.915 273.176,298.300 273.076 C 298.685 272.975,298.370 272.893,297.600 272.893 C 296.830 272.893,296.515 272.975,296.900 273.076 M286.100 273.497 C 287.805 273.572,290.595 273.572,292.300 273.497 C 294.005 273.422,292.610 273.361,289.200 273.361 C 285.790 273.361,284.395 273.422,286.100 273.497 " stroke="none" fill="#a96f5b" fill-rule="evenodd"></path><path id="path3" d="M285.300 127.097 C 286.785 127.174,289.215 127.174,290.700 127.097 C 292.185 127.020,290.970 126.957,288.000 126.957 C 285.030 126.957,283.815 127.020,285.300 127.097 M278.305 127.483 C 278.802 127.579,279.522 127.575,279.905 127.475 C 280.287 127.375,279.880 127.296,279.000 127.301 C 278.120 127.305,277.807 127.387,278.305 127.483 M295.700 127.487 C 296.305 127.578,297.295 127.578,297.900 127.487 C 298.505 127.395,298.010 127.320,296.800 127.320 C 295.590 127.320,295.095 127.395,295.700 127.487 M299.700 127.876 C 300.085 127.976,300.715 127.976,301.100 127.876 C 301.485 127.775,301.170 127.693,300.400 127.693 C 299.630 127.693,299.315 127.775,299.700 127.876 M271.600 128.400 C 270.808 128.654,270.767 128.720,271.400 128.720 C 271.840 128.720,272.650 128.576,273.200 128.400 C 273.992 128.146,274.033 128.080,273.400 128.080 C 272.960 128.080,272.150 128.224,271.600 128.400 M303.800 128.400 C 304.460 128.568,305.450 128.705,306.000 128.705 C 306.892 128.705,306.870 128.672,305.800 128.400 C 305.140 128.232,304.150 128.095,303.600 128.095 C 302.708 128.095,302.730 128.128,303.800 128.400 M268.200 129.200 C 267.696 129.417,267.622 129.544,268.000 129.544 C 268.330 129.544,268.960 129.389,269.400 129.200 C 269.904 128.983,269.978 128.856,269.600 128.856 C 269.270 128.856,268.640 129.011,268.200 129.200 M308.200 129.200 C 308.640 129.389,309.360 129.544,309.800 129.544 L 310.600 129.544 309.800 129.200 C 309.360 129.011,308.640 128.856,308.200 128.856 L 307.400 128.856 308.200 129.200 M263.275 130.673 C 261.666 131.229,260.420 131.753,260.504 131.838 C 260.589 131.923,262.176 131.468,264.029 130.826 C 265.883 130.185,267.130 129.661,266.800 129.662 C 266.470 129.662,264.884 130.118,263.275 130.673 M311.600 130.000 C 312.968 130.438,314.019 130.438,313.000 130.000 C 312.560 129.811,311.840 129.662,311.400 129.668 C 310.757 129.677,310.796 129.743,311.600 130.000 M75.200 130.583 C 75.200 130.969,78.762 136.000,79.036 136.000 C 79.144 136.000,78.390 134.785,77.361 133.300 C 75.167 130.133,75.200 130.175,75.200 130.583 M93.159 130.700 C 109.090 130.800,110.564 130.866,111.081 131.504 C 111.587 132.130,111.600 132.109,111.208 131.300 L 110.772 130.400 93.286 130.496 L 75.800 130.591 93.159 130.700 M169.168 131.100 C 168.718 131.696,168.722 131.725,169.199 131.300 C 169.629 130.917,173.636 130.800,186.310 130.800 L 202.860 130.800 199.780 135.254 C 198.086 137.704,196.867 139.605,197.072 139.479 C 197.500 139.215,203.200 130.988,203.200 130.635 C 203.200 129.946,169.695 130.404,169.168 131.100 M314.600 130.800 C 315.040 130.989,315.670 131.144,316.000 131.144 C 316.378 131.144,316.304 131.017,315.800 130.800 C 315.360 130.611,314.730 130.456,314.400 130.456 C 314.022 130.456,314.096 130.583,314.600 130.800 M111.949 133.000 C 112.165 133.440,112.634 134.160,112.993 134.600 L 113.644 135.400 113.251 134.600 C 113.035 134.160,112.566 133.440,112.207 133.000 L 111.556 132.200 111.949 133.000 M255.100 134.225 C 253.615 134.987,252.400 135.701,252.400 135.811 C 252.400 135.989,257.960 133.327,258.367 132.953 C 258.914 132.451,257.437 133.025,255.100 134.225 M165.921 135.900 C 163.779 139.160,163.515 139.600,163.701 139.600 C 163.876 139.600,164.441 138.795,166.578 135.500 C 166.971 134.895,167.205 134.400,167.099 134.400 C 166.993 134.400,166.463 135.075,165.921 135.900 M324.446 135.267 C 324.421 135.634,324.296 136.264,324.170 136.667 C 323.952 137.362,323.963 137.363,324.397 136.687 C 324.648 136.296,324.773 135.666,324.673 135.287 C 324.511 134.668,324.488 134.666,324.446 135.267 M248.699 137.961 C 247.047 139.039,245.586 140.100,245.451 140.318 C 245.256 140.634,251.338 136.750,251.967 136.157 C 252.623 135.538,251.244 136.299,248.699 137.961 M80.256 138.100 C 81.489 140.136,84.556 144.212,83.793 142.800 C 83.229 141.757,80.291 137.600,80.118 137.600 C 80.027 137.600,80.089 137.825,80.256 138.100 M116.667 140.406 C 117.059 141.070,117.798 142.105,118.310 142.706 C 118.821 143.308,118.575 142.765,117.763 141.500 C 116.224 139.103,115.428 138.307,116.667 140.406 M162.153 141.700 C 160.776 144.036,160.686 144.235,161.387 143.400 C 162.200 142.432,162.900 141.200,162.638 141.200 C 162.533 141.200,162.315 141.425,162.153 141.700 M195.313 141.700 C 194.053 143.339,191.168 147.700,191.675 147.200 C 192.465 146.421,196.128 141.200,195.884 141.200 C 195.782 141.200,195.525 141.425,195.313 141.700 M322.629 142.229 C 322.481 142.815,322.438 143.372,322.532 143.466 C 322.627 143.560,322.824 143.158,322.971 142.571 C 323.119 141.985,323.162 141.428,323.068 141.334 C 322.973 141.240,322.776 141.642,322.629 142.229 M238.549 146.500 C 236.363 148.755,234.164 151.230,233.662 152.000 C 232.823 153.288,232.856 153.272,234.075 151.800 C 234.804 150.920,237.099 148.445,239.175 146.300 C 241.251 144.155,242.854 142.400,242.737 142.400 C 242.620 142.400,240.735 144.245,238.549 146.500 M85.599 145.952 C 86.560 147.322,87.508 148.543,87.706 148.666 C 87.904 148.788,87.317 147.790,86.400 146.447 C 85.484 145.105,84.536 143.884,84.293 143.734 C 84.050 143.584,84.638 144.582,85.599 145.952 M321.829 145.029 C 321.681 145.615,321.638 146.172,321.732 146.266 C 321.827 146.360,322.024 145.958,322.171 145.371 C 322.319 144.785,322.362 144.228,322.268 144.134 C 322.173 144.040,321.976 144.442,321.829 145.029 M121.022 147.100 C 123.159 150.395,123.724 151.200,123.899 151.200 C 124.005 151.200,123.771 150.705,123.378 150.100 C 121.241 146.805,120.676 146.000,120.501 146.000 C 120.395 146.000,120.629 146.495,121.022 147.100 M155.709 151.700 C 152.287 156.953,151.627 158.053,152.288 157.400 C 152.510 157.180,154.030 154.930,155.664 152.400 C 159.331 146.724,159.285 146.800,159.075 146.800 C 158.980 146.800,157.465 149.005,155.709 151.700 M321.050 148.050 C 320.717 149.717,321.040 150.040,321.400 148.400 C 321.552 147.709,321.593 147.059,321.491 146.958 C 321.389 146.856,321.191 147.347,321.050 148.050 M320.446 150.467 C 320.421 150.834,320.296 151.464,320.170 151.867 C 319.952 152.562,319.963 152.563,320.397 151.887 C 320.648 151.496,320.773 150.866,320.673 150.487 C 320.511 149.868,320.488 149.866,320.446 150.467 M92.382 155.701 C 93.975 158.066,95.469 160.119,95.702 160.263 C 96.188 160.564,90.981 152.910,90.080 152.000 C 89.753 151.670,90.789 153.335,92.382 155.701 M187.550 152.900 C 187.052 153.615,186.185 154.821,185.622 155.580 C 185.060 156.339,184.792 156.843,185.027 156.701 C 185.533 156.395,188.941 151.600,188.653 151.600 C 188.544 151.600,188.047 152.185,187.550 152.900 M287.700 155.097 C 289.405 155.172,292.195 155.172,293.900 155.097 C 295.605 155.022,294.210 154.961,290.800 154.961 C 287.390 154.961,285.995 155.022,287.700 155.097 M280.600 155.619 C 280.042 155.871,280.285 155.907,281.400 155.738 C 282.280 155.604,283.075 155.428,283.167 155.347 C 283.510 155.044,281.368 155.271,280.600 155.619 M299.800 155.600 C 300.460 155.768,301.450 155.909,302.000 155.913 L 303.000 155.920 302.000 155.600 C 301.450 155.424,300.460 155.283,299.800 155.287 L 298.600 155.295 299.800 155.600 M229.853 157.591 C 229.274 158.467,228.800 159.317,228.800 159.480 C 228.800 159.644,229.042 159.423,229.339 158.989 C 230.641 157.081,231.278 156.000,231.099 156.000 C 230.993 156.000,230.432 156.716,229.853 157.591 M304.600 156.400 C 305.040 156.589,305.760 156.738,306.200 156.732 C 306.843 156.723,306.804 156.657,306.000 156.400 C 304.632 155.962,303.581 155.962,304.600 156.400 M318.629 157.429 C 318.481 158.015,318.438 158.572,318.532 158.666 C 318.627 158.760,318.824 158.358,318.971 157.771 C 319.119 157.185,319.162 156.628,319.068 156.534 C 318.973 156.440,318.776 156.842,318.629 157.429 M307.800 157.200 C 308.240 157.389,308.960 157.544,309.400 157.544 L 310.200 157.544 309.400 157.200 C 308.960 157.011,308.240 156.856,307.800 156.856 L 307.000 156.856 307.800 157.200 M128.242 158.100 C 129.350 160.020,133.321 166.000,133.487 166.000 C 133.600 166.000,133.432 165.595,133.113 165.100 C 132.795 164.605,131.587 162.715,130.429 160.900 C 129.271 159.085,128.240 157.600,128.138 157.600 C 128.036 157.600,128.083 157.825,128.242 158.100 M271.500 158.626 C 270.455 159.170,269.600 159.705,269.600 159.814 C 269.600 159.993,273.560 158.123,273.967 157.752 C 274.462 157.301,273.161 157.762,271.500 158.626 M312.368 158.428 C 313.560 158.851,314.605 159.128,314.690 159.044 C 314.876 158.857,311.233 157.588,310.629 157.629 C 310.393 157.645,311.176 158.005,312.368 158.428 M181.517 161.500 C 179.875 163.797,179.501 164.400,179.718 164.400 C 179.810 164.400,180.642 163.320,181.568 162.000 C 182.494 160.680,183.166 159.600,183.063 159.600 C 182.960 159.600,182.264 160.455,181.517 161.500 M96.362 161.400 C 96.590 161.840,97.154 162.650,97.615 163.200 C 98.187 163.882,98.322 163.946,98.038 163.400 C 97.810 162.960,97.246 162.150,96.785 161.600 C 96.213 160.918,96.078 160.854,96.362 161.400 M226.145 164.637 C 225.373 166.308,224.808 167.741,224.890 167.823 C 224.971 167.905,225.689 166.538,226.485 164.786 C 227.281 163.034,227.846 161.600,227.740 161.600 C 227.634 161.600,226.916 162.967,226.145 164.637 M265.375 162.900 L 264.200 164.200 265.500 163.025 C 266.215 162.379,266.800 161.794,266.800 161.725 C 266.800 161.416,266.470 161.688,265.375 162.900 M146.325 166.100 C 143.757 169.985,143.507 170.400,143.735 170.400 C 143.859 170.400,144.744 169.185,145.701 167.700 C 147.977 164.169,148.077 164.000,147.880 164.000 C 147.788 164.000,147.089 164.945,146.325 166.100 M178.400 166.000 C 177.930 166.660,177.636 167.200,177.746 167.200 C 177.856 167.200,178.330 166.660,178.800 166.000 C 179.270 165.340,179.564 164.800,179.454 164.800 C 179.344 164.800,178.870 165.340,178.400 166.000 M261.758 166.500 C 260.531 167.829,259.097 169.722,259.863 169.000 C 260.717 168.195,263.288 165.200,263.125 165.200 C 263.033 165.200,262.417 165.785,261.758 166.500 M101.632 169.200 C 103.103 171.297,104.203 172.517,103.344 171.100 C 102.608 169.884,100.307 166.800,100.137 166.800 C 100.034 166.800,100.706 167.880,101.632 169.200 M258.902 170.100 C 258.684 170.375,258.292 171.050,258.031 171.600 C 257.478 172.763,258.480 171.690,259.243 170.300 C 259.689 169.490,259.481 169.368,258.902 170.100 M174.208 172.042 C 173.401 173.165,172.932 173.965,173.166 173.821 C 173.652 173.520,176.132 170.000,175.857 170.000 C 175.757 170.000,175.015 170.919,174.208 172.042 M142.646 171.800 C 142.291 172.350,141.709 173.295,141.353 173.900 L 140.705 175.000 141.510 174.026 C 142.460 172.876,143.721 170.800,143.469 170.800 C 143.371 170.800,143.001 171.250,142.646 171.800 M137.044 171.700 C 138.371 173.974,139.747 175.593,140.319 175.554 C 140.951 175.511,140.952 175.495,140.326 175.329 C 139.955 175.231,139.082 174.262,138.384 173.176 C 137.287 171.466,136.226 170.297,137.044 171.700 M108.419 178.925 C 110.035 181.303,111.530 183.357,111.742 183.487 C 112.203 183.773,106.932 176.060,106.077 175.200 C 105.750 174.870,106.803 176.546,108.419 178.925 M221.873 175.753 C 221.723 176.145,221.611 176.766,221.625 177.133 C 221.642 177.575,221.781 177.474,222.037 176.834 C 222.249 176.303,222.361 175.682,222.285 175.454 C 222.209 175.227,222.024 175.361,221.873 175.753 M168.310 180.500 C 165.511 184.476,164.630 185.845,165.286 185.200 C 166.088 184.413,170.525 178.000,170.268 178.000 C 170.159 178.000,169.278 179.125,168.310 180.500 M221.000 179.200 C 220.848 179.891,220.807 180.541,220.909 180.642 C 221.011 180.744,221.209 180.253,221.350 179.550 C 221.683 177.883,221.360 177.560,221.000 179.200 M253.873 180.953 C 253.723 181.345,253.611 181.966,253.625 182.333 C 253.642 182.775,253.781 182.674,254.037 182.034 C 254.249 181.503,254.361 180.882,254.285 180.654 C 254.209 180.427,254.024 180.561,253.873 180.953 M220.250 182.450 C 219.917 184.117,220.240 184.440,220.600 182.800 C 220.752 182.109,220.793 181.459,220.691 181.358 C 220.589 181.256,220.391 181.747,220.250 182.450 M219.400 187.600 C 219.245 188.728,219.202 189.736,219.306 189.839 C 219.409 189.942,219.616 189.100,219.767 187.967 C 219.917 186.834,219.959 185.826,219.861 185.728 C 219.763 185.629,219.555 186.472,219.400 187.600 M252.233 188.833 C 252.083 189.966,252.041 190.974,252.139 191.072 C 252.237 191.171,252.445 190.328,252.600 189.200 C 252.755 188.072,252.798 187.064,252.694 186.961 C 252.591 186.858,252.384 187.700,252.233 188.833 M160.216 192.098 C 157.186 196.382,157.227 196.209,158.829 198.015 L 160.058 199.400 158.971 197.886 C 157.690 196.102,157.690 196.101,160.996 191.500 C 162.221 189.795,163.135 188.400,163.027 188.400 C 162.920 188.400,161.654 190.064,160.216 192.098 M117.792 192.600 C 118.850 194.140,119.990 195.670,120.325 196.000 C 120.660 196.330,120.067 195.340,119.008 193.800 C 117.950 192.260,116.810 190.730,116.475 190.400 C 116.140 190.070,116.733 191.060,117.792 192.600 M218.619 196.900 C 218.476 199.595,218.504 203.420,218.683 205.400 C 218.954 208.406,219.009 207.597,219.019 200.500 C 219.033 190.676,218.978 190.179,218.619 196.900 M251.761 200.000 C 251.761 203.410,251.822 204.805,251.897 203.100 C 251.972 201.395,251.972 198.605,251.897 196.900 C 251.822 195.195,251.761 196.590,251.761 200.000 M120.832 197.109 C 120.814 197.388,119.884 198.783,118.763 200.209 C 117.643 201.634,116.817 202.800,116.927 202.800 C 117.410 202.800,121.231 197.505,121.057 197.076 C 120.916 196.729,120.855 196.738,120.832 197.109 M161.406 201.556 C 162.179 202.632,163.110 203.757,163.474 204.056 C 163.838 204.355,163.283 203.475,162.240 202.100 C 159.996 199.143,159.387 198.746,161.406 201.556 M115.375 204.668 C 114.759 205.476,114.459 206.011,114.709 205.856 C 115.221 205.540,116.953 203.200,116.675 203.200 C 116.576 203.200,115.991 203.861,115.375 204.668 M165.775 207.332 C 166.391 208.139,166.976 208.800,167.075 208.800 C 167.353 208.800,165.621 206.460,165.109 206.144 C 164.859 205.989,165.159 206.524,165.775 207.332 M112.975 207.868 C 112.359 208.676,112.059 209.211,112.309 209.056 C 112.821 208.740,114.553 206.400,114.275 206.400 C 114.176 206.400,113.591 207.061,112.975 207.868 M168.416 210.963 C 169.168 212.009,169.956 212.973,170.167 213.103 C 170.378 213.233,169.935 212.484,169.184 211.437 C 168.432 210.391,167.644 209.427,167.433 209.297 C 167.222 209.167,167.665 209.916,168.416 210.963 M252.095 210.000 C 252.095 210.550,252.232 211.540,252.400 212.200 C 252.672 213.270,252.705 213.292,252.705 212.400 C 252.705 211.850,252.568 210.860,252.400 210.200 C 252.128 209.130,252.095 209.108,252.095 210.000 M109.741 212.300 C 109.136 213.125,108.362 214.146,108.021 214.569 C 107.679 214.992,107.608 215.216,107.863 215.068 C 108.371 214.773,111.309 210.800,111.020 210.800 C 110.921 210.800,110.346 211.475,109.741 212.300 M219.247 212.433 C 219.273 213.185,219.441 214.340,219.620 215.000 C 219.835 215.789,219.870 215.378,219.723 213.800 C 219.477 211.155,219.173 210.281,219.247 212.433 M170.640 214.023 C 170.882 214.340,172.291 216.265,173.772 218.300 C 175.253 220.335,176.561 222.000,176.679 222.000 C 176.798 222.000,176.449 221.415,175.904 220.700 C 175.359 219.985,174.066 218.189,173.031 216.708 C 171.996 215.227,170.936 213.888,170.675 213.731 C 170.320 213.519,170.312 213.593,170.640 214.023 M252.868 214.800 C 252.888 215.839,253.518 217.546,253.532 216.600 C 253.538 216.160,253.389 215.440,253.200 215.000 C 252.989 214.510,252.861 214.432,252.868 214.800 M106.000 217.400 C 105.319 218.390,104.852 219.200,104.962 219.200 C 105.072 219.200,105.719 218.390,106.400 217.400 C 107.081 216.410,107.548 215.600,107.438 215.600 C 107.328 215.600,106.681 216.410,106.000 217.400 M137.260 219.500 C 136.338 220.852,136.252 221.083,136.961 220.302 C 137.509 219.699,138.148 218.889,138.381 218.502 C 138.760 217.872,138.953 217.964,140.260 219.400 C 141.708 220.991,141.356 220.219,139.849 218.500 C 138.795 217.297,138.749 217.314,137.260 219.500 M220.068 218.200 C 220.062 218.640,220.211 219.360,220.400 219.800 C 220.838 220.819,220.838 219.768,220.400 218.400 C 220.143 217.596,220.077 217.557,220.068 218.200 M102.725 222.100 C 101.104 224.274,99.840 226.236,100.471 225.600 C 101.286 224.779,104.113 220.800,103.882 220.800 C 103.779 220.800,103.259 221.385,102.725 222.100 M143.212 223.522 C 144.166 224.908,145.136 226.160,145.367 226.303 C 145.841 226.596,142.992 222.529,142.072 221.600 C 141.745 221.270,142.258 222.135,143.212 223.522 M220.868 221.800 C 220.862 222.240,221.011 222.960,221.200 223.400 C 221.638 224.419,221.638 223.368,221.200 222.000 C 220.943 221.196,220.877 221.157,220.868 221.800 M135.144 222.300 C 133.993 223.689,133.506 224.400,133.704 224.400 C 133.814 224.400,134.386 223.770,134.973 223.000 C 136.063 221.571,136.195 221.032,135.144 222.300 M180.200 227.437 C 181.699 229.617,183.195 231.670,183.523 232.000 C 183.850 232.330,182.797 230.654,181.181 228.275 C 179.565 225.897,178.070 223.843,177.858 223.713 C 177.647 223.582,178.700 225.258,180.200 227.437 M221.668 225.000 C 221.662 225.440,221.811 226.160,222.000 226.600 C 222.438 227.619,222.438 226.568,222.000 225.200 C 221.743 224.396,221.677 224.357,221.668 225.000 M132.350 226.100 C 131.852 226.815,130.985 228.021,130.422 228.780 C 129.860 229.539,129.626 230.023,129.902 229.855 C 130.443 229.527,133.753 224.800,133.442 224.800 C 133.339 224.800,132.847 225.385,132.350 226.100 M98.237 228.700 C 97.425 229.965,97.179 230.508,97.690 229.906 C 98.700 228.718,100.147 226.400,99.879 226.400 C 99.788 226.400,99.049 227.435,98.237 228.700 M150.047 233.466 C 154.106 239.564,155.898 242.076,154.994 240.400 C 154.185 238.901,146.293 227.181,145.950 226.969 C 145.738 226.838,147.582 229.762,150.047 233.466 M257.400 228.000 C 257.741 228.660,258.111 229.200,258.221 229.200 C 258.331 229.200,258.141 228.660,257.800 228.000 C 257.459 227.340,257.089 226.800,256.979 226.800 C 256.869 226.800,257.059 227.340,257.400 228.000 M260.317 232.600 C 260.545 233.040,261.332 233.940,262.066 234.599 L 263.400 235.798 262.001 234.199 C 261.232 233.320,260.445 232.420,260.252 232.200 C 260.060 231.980,260.089 232.160,260.317 232.600 M224.030 232.896 C 223.989 233.307,226.456 238.908,226.894 239.400 C 227.346 239.907,226.805 238.511,225.267 235.200 C 224.603 233.770,224.046 232.733,224.030 232.896 M189.867 241.496 C 194.506 248.451,195.814 250.310,195.008 248.800 C 194.266 247.411,185.542 234.412,185.217 234.211 C 185.022 234.090,187.114 237.368,189.867 241.496 M263.600 236.125 C 263.600 236.194,264.185 236.779,264.900 237.425 L 266.200 238.600 265.025 237.300 C 263.930 236.088,263.600 235.816,263.600 236.125 M122.377 240.900 C 121.667 242.055,120.821 243.405,120.497 243.900 C 120.173 244.395,119.993 244.800,120.097 244.800 C 120.305 244.800,122.784 241.138,123.549 239.700 C 124.457 237.994,123.666 238.805,122.377 240.900 M267.600 239.379 C 267.600 239.489,268.140 239.859,268.800 240.200 C 269.460 240.541,270.000 240.731,270.000 240.621 C 270.000 240.511,269.460 240.141,268.800 239.800 C 268.140 239.459,267.600 239.269,267.600 239.379 M322.320 240.480 C 322.584 240.744,322.814 241.419,322.832 241.980 C 322.849 242.541,322.957 242.767,323.071 242.483 C 323.379 241.714,322.856 240.000,322.312 240.000 C 321.953 240.000,321.955 240.115,322.320 240.480 M155.611 242.000 C 156.328 243.381,158.876 247.200,159.080 247.200 C 159.273 247.200,159.164 247.012,157.112 243.825 C 155.427 241.207,154.810 240.457,155.611 242.000 M228.524 242.600 C 228.862 243.260,229.438 244.160,229.804 244.600 C 230.170 245.040,230.065 244.680,229.570 243.800 C 228.480 241.858,227.664 240.922,228.524 242.600 M273.400 242.422 C 274.280 242.838,275.270 243.175,275.600 243.171 C 275.930 243.166,275.300 242.811,274.200 242.382 C 271.696 241.404,271.292 241.424,273.400 242.422 M314.000 242.426 C 312.580 242.909,312.292 243.090,313.186 242.937 C 314.810 242.658,317.676 241.651,316.800 241.667 C 316.470 241.673,315.210 242.015,314.000 242.426 M277.000 243.600 C 277.440 243.789,278.070 243.944,278.400 243.944 C 278.778 243.944,278.704 243.817,278.200 243.600 C 277.760 243.411,277.130 243.256,276.800 243.256 C 276.422 243.256,276.496 243.383,277.000 243.600 M308.800 243.600 C 308.008 243.854,307.967 243.920,308.600 243.920 C 309.040 243.920,309.850 243.776,310.400 243.600 C 311.192 243.346,311.233 243.280,310.600 243.280 C 310.160 243.280,309.350 243.424,308.800 243.600 M280.400 244.400 C 280.950 244.576,281.760 244.720,282.200 244.720 C 282.833 244.720,282.792 244.654,282.000 244.400 C 281.450 244.224,280.640 244.080,280.200 244.080 C 279.567 244.080,279.608 244.146,280.400 244.400 M303.800 244.400 L 302.600 244.705 303.800 244.713 C 304.460 244.717,305.450 244.576,306.000 244.400 L 307.000 244.080 306.000 244.087 C 305.450 244.091,304.460 244.232,303.800 244.400 M323.280 244.600 C 323.280 245.040,323.424 245.850,323.600 246.400 C 323.854 247.192,323.920 247.233,323.920 246.600 C 323.920 246.160,323.776 245.350,323.600 244.800 C 323.346 244.008,323.280 243.967,323.280 244.600 M286.600 245.265 C 289.146 245.602,296.334 245.600,299.200 245.260 C 300.410 245.117,297.620 245.000,293.000 245.000 C 288.380 245.000,285.500 245.119,286.600 245.265 M119.152 246.100 C 118.890 246.595,118.415 247.450,118.096 248.000 C 117.539 248.959,117.543 248.967,118.188 248.200 C 118.986 247.252,120.105 245.200,119.824 245.200 C 119.716 245.200,119.414 245.605,119.152 246.100 M85.522 247.700 C 84.097 249.850,82.898 251.977,83.337 251.575 C 83.546 251.384,85.989 247.676,86.944 246.100 C 87.820 244.655,86.718 245.894,85.522 247.700 M232.861 249.200 C 234.079 251.034,239.237 256.428,241.787 258.534 C 242.894 259.448,241.711 258.127,239.158 255.598 C 236.605 253.069,233.935 250.280,233.224 249.400 C 232.103 248.012,232.054 247.986,232.861 249.200 M324.087 249.400 C 324.091 249.840,324.232 250.740,324.400 251.400 C 324.674 252.478,324.706 252.498,324.713 251.600 C 324.717 251.050,324.576 250.150,324.400 249.600 C 324.149 248.816,324.081 248.773,324.087 249.400 M160.749 250.200 C 160.965 250.640,161.434 251.360,161.793 251.800 L 162.444 252.600 162.051 251.800 C 161.835 251.360,161.366 250.640,161.007 250.200 L 160.356 249.400 160.749 250.200 M81.917 253.500 C 80.685 255.369,79.917 256.800,80.146 256.800 C 80.242 256.800,80.675 256.199,81.108 255.465 C 81.541 254.731,82.210 253.651,82.594 253.065 C 82.978 252.479,83.205 252.000,83.099 252.000 C 82.993 252.000,82.461 252.675,81.917 253.500 M197.400 253.200 C 197.741 253.860,198.111 254.400,198.221 254.400 C 198.331 254.400,198.141 253.860,197.800 253.200 C 197.459 252.540,197.089 252.000,196.979 252.000 C 196.869 252.000,197.059 252.540,197.400 253.200 M163.000 254.000 C 163.341 254.660,163.711 255.200,163.821 255.200 C 163.931 255.200,163.741 254.660,163.400 254.000 C 163.059 253.340,162.689 252.800,162.579 252.800 C 162.469 252.800,162.659 253.340,163.000 254.000 M114.186 254.500 L 113.552 255.800 114.367 254.800 C 115.152 253.837,115.408 253.200,115.010 253.200 C 114.906 253.200,114.535 253.785,114.186 254.500 M324.870 253.800 C 324.857 254.240,324.995 255.320,325.177 256.200 C 325.455 257.545,325.508 257.609,325.507 256.600 C 325.505 255.199,324.908 252.570,324.870 253.800 M164.524 256.600 C 164.862 257.260,165.438 258.160,165.804 258.600 C 166.170 259.040,166.065 258.680,165.570 257.800 C 164.480 255.858,163.664 254.922,164.524 256.600 M112.600 257.200 C 112.259 257.860,112.069 258.400,112.179 258.400 C 112.289 258.400,112.659 257.860,113.000 257.200 C 113.341 256.540,113.531 256.000,113.421 256.000 C 113.311 256.000,112.941 256.540,112.600 257.200 M200.628 258.700 C 202.095 261.347,203.421 263.400,203.141 262.591 C 202.846 261.738,199.535 256.000,199.338 256.000 C 199.224 256.000,199.805 257.215,200.628 258.700 M79.000 258.400 C 78.659 259.060,78.469 259.600,78.579 259.600 C 78.689 259.600,79.059 259.060,79.400 258.400 C 79.741 257.740,79.931 257.200,79.821 257.200 C 79.711 257.200,79.341 257.740,79.000 258.400 M325.695 258.800 C 325.695 259.350,325.832 260.340,326.000 261.000 C 326.272 262.070,326.305 262.092,326.305 261.200 C 326.305 260.650,326.168 259.660,326.000 259.000 C 325.728 257.930,325.695 257.908,325.695 258.800 M111.000 260.000 C 110.659 260.660,110.469 261.200,110.579 261.200 C 110.689 261.200,111.059 260.660,111.400 260.000 C 111.741 259.340,111.931 258.800,111.821 258.800 C 111.711 258.800,111.341 259.340,111.000 260.000 M167.000 260.800 C 167.341 261.460,167.711 262.000,167.821 262.000 C 167.931 262.000,167.741 261.460,167.400 260.800 C 167.059 260.140,166.689 259.600,166.579 259.600 C 166.469 259.600,166.659 260.140,167.000 260.800 M77.414 261.035 C 77.041 261.604,76.805 262.138,76.889 262.222 C 76.973 262.307,77.358 261.841,77.744 261.188 C 78.606 259.728,78.348 259.609,77.414 261.035 M109.400 262.800 C 109.059 263.460,108.869 264.000,108.979 264.000 C 109.089 264.000,109.459 263.460,109.800 262.800 C 110.141 262.140,110.331 261.600,110.221 261.600 C 110.111 261.600,109.741 262.140,109.400 262.800 M326.487 263.600 C 326.483 264.150,326.624 265.050,326.800 265.600 C 327.231 266.944,327.231 265.492,326.800 263.800 C 326.526 262.722,326.494 262.702,326.487 263.600 M168.848 263.800 C 169.414 265.237,171.634 269.130,172.114 269.528 C 172.877 270.161,206.460 270.021,206.672 269.384 C 206.748 269.155,206.528 268.615,206.183 268.184 C 205.578 267.428,205.572 267.432,205.995 268.306 C 206.642 269.640,206.949 269.619,188.800 269.505 L 172.200 269.400 170.796 266.730 C 169.580 264.417,168.379 262.610,168.848 263.800 M75.014 265.435 C 74.641 266.004,74.405 266.538,74.489 266.622 C 74.573 266.707,74.958 266.241,75.344 265.588 C 76.206 264.128,75.948 264.009,75.014 265.435 M251.600 264.998 C 251.600 265.267,255.649 267.284,255.829 267.105 C 255.911 267.023,254.993 266.473,253.789 265.882 C 252.585 265.292,251.600 264.894,251.600 264.998 M73.583 268.031 C 72.523 270.013,72.421 270.000,89.487 269.994 C 106.132 269.987,105.991 270.000,106.762 268.400 C 107.218 267.455,107.197 267.460,106.389 268.500 L 105.533 269.600 89.567 269.600 C 78.532 269.600,73.600 269.468,73.600 269.174 C 73.600 268.939,73.786 268.399,74.014 267.974 C 74.242 267.548,74.338 267.200,74.228 267.200 C 74.118 267.200,73.828 267.574,73.583 268.031 M318.200 269.200 C 317.696 269.417,317.622 269.544,318.000 269.544 C 318.330 269.544,318.960 269.389,319.400 269.200 C 319.904 268.983,319.978 268.856,319.600 268.856 C 319.270 268.856,318.640 269.011,318.200 269.200 M263.400 270.000 C 263.840 270.189,264.470 270.344,264.800 270.344 C 265.178 270.344,265.104 270.217,264.600 270.000 C 264.160 269.811,263.530 269.656,263.200 269.656 C 262.822 269.656,262.896 269.783,263.400 270.000 M314.800 270.000 C 314.008 270.254,313.967 270.320,314.600 270.320 C 315.040 270.320,315.850 270.176,316.400 270.000 C 317.192 269.746,317.233 269.680,316.600 269.680 C 316.160 269.680,315.350 269.824,314.800 270.000 M266.200 270.800 C 266.640 270.989,267.360 271.138,267.800 271.132 C 268.443 271.123,268.404 271.057,267.600 270.800 C 266.232 270.362,265.181 270.362,266.200 270.800 M311.200 270.800 C 310.408 271.054,310.367 271.120,311.000 271.120 C 311.440 271.120,312.250 270.976,312.800 270.800 C 313.592 270.546,313.633 270.480,313.000 270.480 C 312.560 270.480,311.750 270.624,311.200 270.800 M270.000 271.600 C 271.368 272.038,272.419 272.038,271.400 271.600 C 270.960 271.411,270.240 271.262,269.800 271.268 C 269.157 271.277,269.196 271.343,270.000 271.600 M307.200 271.600 C 306.408 271.854,306.367 271.920,307.000 271.920 C 307.440 271.920,308.250 271.776,308.800 271.600 C 309.592 271.346,309.633 271.280,309.000 271.280 C 308.560 271.280,307.750 271.424,307.200 271.600 M274.600 272.385 C 275.822 272.711,279.070 272.920,278.767 272.653 C 278.675 272.572,277.430 272.407,276.000 272.285 C 274.362 272.146,273.844 272.182,274.600 272.385 M300.600 272.400 C 298.668 272.665,298.654 272.676,300.200 272.714 C 301.080 272.736,302.520 272.605,303.400 272.423 C 305.442 272.001,303.620 271.986,300.600 272.400 M284.900 273.098 C 287.045 273.170,290.555 273.170,292.700 273.098 C 294.845 273.026,293.090 272.967,288.800 272.967 C 284.510 272.967,282.755 273.026,284.900 273.098 " stroke="none" fill="#c4947c" fill-rule="evenodd"></path><path id="path4" d="M283.507 126.690 C 284.226 126.779,285.306 126.777,285.907 126.686 C 286.508 126.595,285.920 126.522,284.600 126.524 C 283.280 126.526,282.788 126.601,283.507 126.690 M289.900 126.689 C 290.615 126.778,291.785 126.778,292.500 126.689 C 293.215 126.601,292.630 126.528,291.200 126.528 C 289.770 126.528,289.185 126.601,289.900 126.689 M277.300 127.087 C 277.905 127.178,278.895 127.178,279.500 127.087 C 280.105 126.995,279.610 126.920,278.400 126.920 C 277.190 126.920,276.695 126.995,277.300 127.087 M296.707 127.090 C 297.426 127.179,298.506 127.177,299.107 127.086 C 299.708 126.995,299.120 126.922,297.800 126.924 C 296.480 126.926,295.988 127.001,296.707 127.090 M272.500 127.876 C 272.885 127.976,273.515 127.976,273.900 127.876 C 274.285 127.775,273.970 127.693,273.200 127.693 C 272.430 127.693,272.115 127.775,272.500 127.876 M113.815 135.100 C 115.156 137.185,115.600 137.777,115.600 137.480 C 115.600 137.096,113.555 134.000,113.301 134.000 C 113.195 134.000,113.426 134.495,113.815 135.100 M251.600 135.636 C 250.936 136.179,250.869 136.315,251.400 136.040 C 252.705 135.366,253.428 134.812,253.000 134.815 C 252.780 134.817,252.150 135.186,251.600 135.636 M324.846 135.667 C 324.821 136.034,324.696 136.664,324.570 137.067 C 324.352 137.762,324.363 137.763,324.797 137.087 C 325.048 136.696,325.173 136.066,325.073 135.687 C 324.911 135.068,324.888 135.066,324.846 135.667 M78.800 136.800 C 79.270 137.460,79.744 138.000,79.854 138.000 C 79.964 138.000,79.670 137.460,79.200 136.800 C 78.730 136.140,78.256 135.600,78.146 135.600 C 78.036 135.600,78.330 136.140,78.800 136.800 M197.600 139.200 C 197.130 139.860,196.836 140.400,196.946 140.400 C 197.056 140.400,197.530 139.860,198.000 139.200 C 198.470 138.540,198.764 138.000,198.654 138.000 C 198.544 138.000,198.070 138.540,197.600 139.200 M161.353 142.100 C 159.976 144.436,159.886 144.635,160.587 143.800 C 161.400 142.832,162.100 141.600,161.838 141.600 C 161.733 141.600,161.515 141.825,161.353 142.100 M238.181 146.100 L 236.600 147.800 238.300 146.219 C 239.881 144.748,240.184 144.400,239.881 144.400 C 239.816 144.400,239.051 145.165,238.181 146.100 M322.446 144.867 C 322.421 145.234,322.296 145.864,322.170 146.267 C 321.952 146.962,321.963 146.963,322.397 146.287 C 322.648 145.896,322.773 145.266,322.673 144.887 C 322.511 144.268,322.488 144.266,322.446 144.867 M158.784 146.023 C 158.305 146.696,157.979 147.313,158.061 147.394 C 158.143 147.476,158.614 146.926,159.108 146.171 C 160.223 144.471,159.971 144.356,158.784 146.023 M191.600 147.800 C 190.919 148.790,190.452 149.600,190.562 149.600 C 190.672 149.600,191.319 148.790,192.000 147.800 C 192.681 146.810,193.148 146.000,193.038 146.000 C 192.928 146.000,192.281 146.810,191.600 147.800 M86.800 148.400 C 87.270 149.060,87.744 149.600,87.854 149.600 C 87.964 149.600,87.670 149.060,87.200 148.400 C 86.730 147.740,86.256 147.200,86.146 147.200 C 86.036 147.200,86.330 147.740,86.800 148.400 M234.975 149.700 L 233.800 151.000 235.100 149.825 C 235.815 149.179,236.400 148.594,236.400 148.525 C 236.400 148.216,236.070 148.488,234.975 149.700 M123.422 149.900 C 125.559 153.195,126.124 154.000,126.299 154.000 C 126.405 154.000,126.171 153.505,125.778 152.900 C 123.641 149.605,123.076 148.800,122.901 148.800 C 122.795 148.800,123.029 149.295,123.422 149.900 M189.199 151.300 C 188.610 152.104,188.513 152.384,188.945 152.033 C 189.601 151.500,190.593 150.000,190.289 150.000 C 190.213 150.000,189.722 150.585,189.199 151.300 M320.846 150.867 C 320.821 151.234,320.696 151.864,320.570 152.267 C 320.352 152.962,320.363 152.963,320.797 152.287 C 321.048 151.896,321.173 151.266,321.073 150.887 C 320.911 150.268,320.888 150.266,320.846 150.867 M150.660 158.596 C 149.417 160.464,148.400 162.127,148.400 162.292 C 148.400 162.457,149.180 161.423,150.133 159.996 C 152.891 155.866,153.304 155.200,153.106 155.200 C 153.004 155.200,151.903 156.728,150.660 158.596 M287.700 155.497 C 289.405 155.572,292.195 155.572,293.900 155.497 C 295.605 155.422,294.210 155.361,290.800 155.361 C 287.390 155.361,285.995 155.422,287.700 155.497 M280.100 156.276 C 280.485 156.376,281.115 156.376,281.500 156.276 C 281.885 156.175,281.570 156.093,280.800 156.093 C 280.030 156.093,279.715 156.175,280.100 156.276 M300.900 156.276 C 301.285 156.376,301.915 156.376,302.300 156.276 C 302.685 156.175,302.370 156.093,301.600 156.093 C 300.830 156.093,300.515 156.175,300.900 156.276 M184.800 157.600 C 184.330 158.260,184.036 158.800,184.146 158.800 C 184.256 158.800,184.730 158.260,185.200 157.600 C 185.670 156.940,185.964 156.400,185.854 156.400 C 185.744 156.400,185.270 156.940,184.800 157.600 M277.600 156.800 C 276.776 157.064,276.741 157.126,277.400 157.154 C 277.840 157.173,278.470 157.013,278.800 156.800 C 279.501 156.347,279.014 156.347,277.600 156.800 M307.600 157.582 C 307.930 157.805,308.545 157.991,308.967 157.994 C 309.990 158.002,309.671 157.773,308.200 157.444 C 307.324 157.248,307.162 157.285,307.600 157.582 M94.800 160.000 C 95.270 160.660,95.744 161.200,95.854 161.200 C 95.964 161.200,95.670 160.660,95.200 160.000 C 94.730 159.340,94.256 158.800,94.146 158.800 C 94.036 158.800,94.330 159.340,94.800 160.000 M267.400 161.835 L 266.200 162.866 267.500 162.006 C 268.215 161.533,268.800 161.068,268.800 160.973 C 268.800 160.673,268.631 160.778,267.400 161.835 M263.562 165.100 C 261.984 166.759,259.940 169.280,261.049 168.200 C 262.241 167.040,265.692 163.200,265.543 163.200 C 265.448 163.200,264.556 164.055,263.562 165.100 M178.800 166.200 C 178.119 167.190,177.652 168.000,177.762 168.000 C 177.872 168.000,178.519 167.190,179.200 166.200 C 179.881 165.210,180.348 164.400,180.238 164.400 C 180.128 164.400,179.481 165.210,178.800 166.200 M142.637 171.100 C 141.825 172.365,141.579 172.908,142.090 172.306 C 143.100 171.118,144.547 168.800,144.279 168.800 C 144.188 168.800,143.449 169.835,142.637 171.100 M222.491 172.500 C 221.810 174.384,221.904 174.894,222.626 173.230 C 222.953 172.477,223.166 171.699,223.101 171.502 C 223.035 171.305,222.760 171.754,222.491 172.500 M172.800 174.800 C 172.330 175.460,172.036 176.000,172.146 176.000 C 172.256 176.000,172.730 175.460,173.200 174.800 C 173.670 174.140,173.964 173.600,173.854 173.600 C 173.744 173.600,173.270 174.140,172.800 174.800 M221.449 175.415 C 221.312 175.773,221.215 176.366,221.234 176.733 C 221.253 177.100,221.427 176.869,221.621 176.220 C 221.998 174.958,221.865 174.333,221.449 175.415 M105.964 176.333 C 106.180 176.736,106.671 177.321,107.055 177.633 C 107.487 177.984,107.390 177.704,106.801 176.900 C 105.751 175.465,105.357 175.198,105.964 176.333 M112.000 185.000 C 113.113 186.650,114.114 188.000,114.224 188.000 C 114.334 188.000,113.513 186.650,112.400 185.000 C 111.287 183.350,110.286 182.000,110.176 182.000 C 110.066 182.000,110.887 183.350,112.000 185.000 M219.693 183.600 C 219.693 184.370,219.775 184.685,219.876 184.300 C 219.976 183.915,219.976 183.285,219.876 182.900 C 219.775 182.515,219.693 182.830,219.693 183.600 M166.000 184.600 C 165.319 185.590,164.852 186.400,164.962 186.400 C 165.072 186.400,165.719 185.590,166.400 184.600 C 167.081 183.610,167.548 182.800,167.438 182.800 C 167.328 182.800,166.681 183.610,166.000 184.600 M218.914 188.600 C 218.917 189.700,218.995 190.103,219.087 189.495 C 219.179 188.886,219.177 187.986,219.082 187.495 C 218.987 187.003,218.911 187.500,218.914 188.600 M252.633 189.633 C 252.483 190.766,252.441 191.774,252.539 191.872 C 252.637 191.971,252.845 191.128,253.000 190.000 C 253.155 188.872,253.198 187.864,253.094 187.761 C 252.991 187.658,252.784 188.500,252.633 189.633 M160.085 193.100 C 158.202 195.901,157.905 196.400,158.118 196.400 C 158.208 196.400,159.120 195.140,160.145 193.600 C 161.169 192.060,161.922 190.800,161.818 190.800 C 161.715 190.800,160.934 191.835,160.085 193.100 M252.165 200.200 C 252.166 204.160,252.226 205.726,252.298 203.680 C 252.371 201.634,252.371 198.394,252.298 196.480 C 252.224 194.566,252.165 196.240,252.165 200.200 M218.163 200.400 C 218.163 204.030,218.223 205.515,218.298 203.700 C 218.372 201.885,218.372 198.915,218.298 197.100 C 218.223 195.285,218.163 196.770,218.163 200.400 M119.637 196.000 C 120.796 197.796,120.800 197.801,120.798 197.367 C 120.797 197.165,120.332 196.460,119.765 195.800 L 118.734 194.600 119.637 196.000 M163.200 203.200 C 163.670 203.860,164.144 204.400,164.254 204.400 C 164.364 204.400,164.070 203.860,163.600 203.200 C 163.130 202.540,162.656 202.000,162.546 202.000 C 162.436 202.000,162.730 202.540,163.200 203.200 M218.493 208.800 C 218.493 209.570,218.575 209.885,218.676 209.500 C 218.776 209.115,218.776 208.485,218.676 208.100 C 218.575 207.715,218.493 208.030,218.493 208.800 M252.470 209.000 C 252.457 209.440,252.595 210.520,252.777 211.400 C 253.055 212.745,253.108 212.809,253.107 211.800 C 253.105 210.399,252.508 207.770,252.470 209.000 M218.914 212.600 C 218.917 213.700,218.995 214.103,219.087 213.495 C 219.179 212.886,219.177 211.986,219.082 211.495 C 218.987 211.003,218.911 211.500,218.914 212.600 M173.808 217.558 C 174.615 218.681,175.357 219.600,175.457 219.600 C 175.732 219.600,173.252 216.080,172.766 215.779 C 172.532 215.635,173.001 216.435,173.808 217.558 M219.701 218.200 C 219.705 219.080,219.787 219.393,219.883 218.895 C 219.979 218.398,219.975 217.678,219.875 217.295 C 219.775 216.913,219.696 217.320,219.701 218.200 M138.562 218.462 C 138.397 218.728,138.451 218.816,138.689 218.668 C 138.917 218.528,139.577 219.130,140.157 220.007 C 140.737 220.883,141.307 221.600,141.425 221.600 C 141.542 221.600,141.081 220.790,140.400 219.800 C 139.047 217.833,138.980 217.785,138.562 218.462 M136.575 221.068 C 135.959 221.876,135.659 222.411,135.909 222.256 C 136.421 221.940,138.153 219.600,137.875 219.600 C 137.776 219.600,137.191 220.261,136.575 221.068 M102.800 221.200 C 102.330 221.860,102.036 222.400,102.146 222.400 C 102.256 222.400,102.730 221.860,103.200 221.200 C 103.670 220.540,103.964 220.000,103.854 220.000 C 103.744 220.000,103.270 220.540,102.800 221.200 M177.199 222.300 C 177.722 223.015,178.213 223.600,178.289 223.600 C 178.593 223.600,177.601 222.100,176.945 221.567 C 176.513 221.216,176.610 221.496,177.199 222.300 M133.199 225.700 C 132.610 226.504,132.513 226.784,132.945 226.433 C 133.601 225.900,134.593 224.400,134.289 224.400 C 134.213 224.400,133.722 224.985,133.199 225.700 M221.200 225.776 C 221.200 226.313,221.347 226.844,221.528 226.955 C 221.708 227.067,221.777 226.627,221.682 225.979 C 221.472 224.549,221.200 224.435,221.200 225.776 M130.000 230.200 C 129.319 231.190,128.852 232.000,128.962 232.000 C 129.072 232.000,129.719 231.190,130.400 230.200 C 131.081 229.210,131.548 228.400,131.438 228.400 C 131.328 228.400,130.681 229.210,130.000 230.200 M94.093 233.900 C 93.057 235.396,92.721 236.000,92.923 236.000 C 93.017 236.000,93.570 235.280,94.153 234.400 C 95.336 232.612,95.284 232.179,94.093 233.900 M184.802 233.033 C 184.803 233.235,185.268 233.940,185.835 234.600 L 186.866 235.800 185.963 234.400 C 184.804 232.604,184.800 232.599,184.802 233.033 M150.985 235.500 C 151.602 236.435,152.183 237.200,152.276 237.200 C 152.564 237.200,151.033 234.766,150.432 234.269 C 150.120 234.011,150.368 234.565,150.985 235.500 M263.200 235.400 C 263.946 236.170,264.647 236.800,264.757 236.800 C 264.867 236.800,264.346 236.170,263.600 235.400 C 262.854 234.630,262.153 234.000,262.043 234.000 C 261.933 234.000,262.454 234.630,263.200 235.400 M124.646 238.200 C 124.291 238.750,123.709 239.695,123.353 240.300 L 122.705 241.400 123.510 240.426 C 124.460 239.276,125.721 237.200,125.469 237.200 C 125.371 237.200,125.001 237.650,124.646 238.200 M266.494 238.090 C 267.682 239.100,270.000 240.547,270.000 240.279 C 270.000 240.188,268.965 239.449,267.700 238.637 C 266.435 237.825,265.892 237.579,266.494 238.090 M90.085 239.900 C 88.202 242.701,87.905 243.200,88.118 243.200 C 88.208 243.200,89.120 241.940,90.145 240.400 C 91.169 238.860,91.922 237.600,91.818 237.600 C 91.715 237.600,90.934 238.635,90.085 239.900 M154.000 240.120 C 154.000 240.504,156.045 243.600,156.299 243.600 C 156.478 243.600,155.841 242.519,154.539 240.611 C 154.242 240.177,154.000 239.956,154.000 240.120 M323.293 241.600 C 323.293 242.370,323.375 242.685,323.476 242.300 C 323.576 241.915,323.576 241.285,323.476 240.900 C 323.375 240.515,323.293 240.830,323.293 241.600 M312.000 242.418 C 311.562 242.715,311.724 242.752,312.600 242.556 C 314.071 242.227,314.390 241.998,313.367 242.006 C 312.945 242.009,312.330 242.195,312.000 242.418 M308.400 243.206 C 307.978 243.482,308.215 243.523,309.200 243.342 C 310.925 243.025,311.251 242.798,309.967 242.806 C 309.435 242.809,308.730 242.989,308.400 243.206 M305.300 243.876 C 305.685 243.976,306.315 243.976,306.700 243.876 C 307.085 243.775,306.770 243.693,306.000 243.693 C 305.230 243.693,304.915 243.775,305.300 243.876 M120.253 245.300 L 119.533 246.600 120.358 245.600 C 121.089 244.713,121.414 244.000,121.086 244.000 C 121.024 244.000,120.649 244.585,120.253 245.300 M285.900 244.693 C 286.835 244.777,288.365 244.777,289.300 244.693 C 290.235 244.609,289.470 244.540,287.600 244.540 C 285.730 244.540,284.965 244.609,285.900 244.693 M296.512 244.695 C 297.564 244.777,299.184 244.776,300.112 244.692 C 301.040 244.608,300.180 244.541,298.200 244.542 C 296.220 244.543,295.460 244.612,296.512 244.695 M324.101 246.600 C 324.105 247.480,324.187 247.793,324.283 247.295 C 324.379 246.798,324.375 246.078,324.275 245.695 C 324.175 245.313,324.096 245.720,324.101 246.600 M158.209 247.026 C 158.581 247.701,159.241 248.691,159.676 249.226 L 160.467 250.200 159.791 248.974 C 159.419 248.299,158.759 247.309,158.324 246.774 L 157.533 245.800 158.209 247.026 M324.673 250.000 C 324.804 250.990,324.976 251.875,325.056 251.967 C 325.357 252.314,325.128 249.764,324.790 249.000 C 324.553 248.466,324.514 248.798,324.673 250.000 M82.953 250.900 C 81.576 253.236,81.486 253.435,82.187 252.600 C 83.000 251.632,83.700 250.400,83.438 250.400 C 83.333 250.400,83.115 250.625,82.953 250.900 M237.200 255.000 C 238.395 256.210,239.463 257.200,239.573 257.200 C 239.683 257.200,238.795 256.210,237.600 255.000 C 236.405 253.790,235.337 252.800,235.227 252.800 C 235.117 252.800,236.005 253.790,237.200 255.000 M325.693 255.600 C 325.693 256.370,325.775 256.685,325.876 256.300 C 325.976 255.915,325.976 255.285,325.876 254.900 C 325.775 254.515,325.693 254.830,325.693 255.600 M77.814 259.435 C 77.441 260.004,77.205 260.538,77.289 260.622 C 77.373 260.707,77.758 260.241,78.144 259.588 C 79.006 258.128,78.748 258.009,77.814 259.435 M244.669 261.232 C 245.166 261.833,247.600 263.364,247.600 263.076 C 247.600 262.983,246.835 262.402,245.900 261.785 C 244.965 261.168,244.411 260.920,244.669 261.232 M327.293 265.200 C 327.293 265.970,327.375 266.285,327.476 265.900 C 327.576 265.515,327.576 264.885,327.476 264.500 C 327.375 264.115,327.293 264.430,327.293 265.200 M205.000 265.600 C 205.341 266.260,205.711 266.800,205.821 266.800 C 205.931 266.800,205.741 266.260,205.400 265.600 C 205.059 264.940,204.689 264.400,204.579 264.400 C 204.469 264.400,204.659 264.940,205.000 265.600 M73.600 267.200 C 73.151 268.080,72.874 268.800,72.984 268.800 C 73.094 268.800,73.551 268.080,74.000 267.200 C 74.449 266.320,74.726 265.600,74.616 265.600 C 74.506 265.600,74.049 266.320,73.600 267.200 M170.800 268.649 C 170.800 270.362,171.387 270.414,189.631 270.304 C 206.656 270.202,206.991 270.185,207.072 269.400 C 207.136 268.778,207.108 268.756,206.948 269.300 C 206.755 269.953,205.570 270.000,189.393 270.000 L 172.045 270.000 171.423 269.111 C 171.080 268.622,170.800 268.414,170.800 268.649 M106.165 269.595 C 105.920 269.840,99.430 270.033,89.185 270.100 L 72.600 270.209 89.251 270.305 C 103.644 270.387,105.970 270.319,106.400 269.800 C 106.955 269.131,106.781 268.979,106.165 269.595 M318.800 269.600 C 317.976 269.864,317.941 269.926,318.600 269.954 C 319.040 269.973,319.670 269.813,320.000 269.600 C 320.701 269.147,320.214 269.147,318.800 269.600 M315.400 270.400 C 314.293 270.682,314.277 270.709,315.200 270.747 C 315.750 270.769,316.470 270.613,316.800 270.400 C 317.481 269.960,317.129 269.960,315.400 270.400 M266.000 271.194 C 266.330 271.411,267.035 271.591,267.567 271.594 C 268.851 271.602,268.525 271.375,266.800 271.058 C 265.815 270.877,265.578 270.918,266.000 271.194 M306.500 272.276 C 306.885 272.376,307.515 272.376,307.900 272.276 C 308.285 272.175,307.970 272.093,307.200 272.093 C 306.430 272.093,306.115 272.175,306.500 272.276 M275.700 273.087 C 276.305 273.178,277.295 273.178,277.900 273.087 C 278.505 272.995,278.010 272.920,276.800 272.920 C 275.590 272.920,275.095 272.995,275.700 273.087 M299.907 273.090 C 300.626 273.179,301.706 273.177,302.307 273.086 C 302.908 272.995,302.320 272.922,301.000 272.924 C 299.680 272.926,299.188 273.001,299.907 273.090 M280.700 273.482 C 281.195 273.578,282.005 273.578,282.500 273.482 C 282.995 273.387,282.590 273.309,281.600 273.309 C 280.610 273.309,280.205 273.387,280.700 273.482 M286.082 273.896 C 287.558 273.973,290.078 273.973,291.682 273.897 C 293.287 273.821,292.080 273.758,289.000 273.758 C 285.920 273.757,284.607 273.819,286.082 273.896 " stroke="none" fill="#8d4931" fill-rule="evenodd"></path></g></svg>